<mxfile host="Electron" agent="Mozilla/5.0 (Windows NT 10.0; Win64; x64) AppleWebKit/537.36 (KHTML, like Gecko) draw.io/28.1.2 Chrome/138.0.7204.243 Electron/37.4.0 Safari/537.36" version="28.1.2">
  <diagram name="Page-1" id="ohtOl2tL6jAW0y2cfmm5">
    <mxGraphModel dx="1090" dy="593" grid="1" gridSize="10" guides="1" tooltips="1" connect="1" arrows="1" fold="1" page="1" pageScale="1" pageWidth="850" pageHeight="1100" math="0" shadow="0">
      <root>
        <mxCell id="0" />
        <mxCell id="1" parent="0" />
        <mxCell id="Ch6X7FGSX2CgDCUvS71B-1" value="เริ่ม" style="ellipse;whiteSpace=wrap;html=1;" vertex="1" parent="1">
          <mxGeometry x="550" y="220" width="120" height="60" as="geometry" />
        </mxCell>
        <mxCell id="Ch6X7FGSX2CgDCUvS71B-2" value="ตรวจสอบอุปกรณ์ครัว&#xa;- กระทะ&#xa;- หม้อหุงข้าว&#xa;- เขียง&#xa;- มีด&#xa;- ทัพพี/ตะหลิว" style="rectangle;rounded=1;whiteSpace=wrap;html=1;" vertex="1" parent="1">
          <mxGeometry x="470" y="320" width="280" height="120" as="geometry" />
        </mxCell>
        <mxCell id="Ch6X7FGSX2CgDCUvS71B-3" value="ตรวจสอบวัตถุดิบ&#xa;- ข้าวสวยหุงสุก&#xa;- หมูสามชั้น&#xa;- กระเทียม/พริก&#xa;- ใบกระเพรา&#xa;- ไข่เยี่ยวม้า&#xa;- น้ำมัน, ซอสปรุงรส" style="rectangle;rounded=1;whiteSpace=wrap;html=1;" vertex="1" parent="1">
          <mxGeometry x="470" y="470" width="280" height="140" as="geometry" />
        </mxCell>
        <mxCell id="Ch6X7FGSX2CgDCUvS71B-4" value="เตรียมวัตถุดิบ&#xa;- ล้างใบกระเพรา&#xa;- สับกระเทียมและพริก&#xa;- หั่นหมูสามชั้น&#xa;- เตรียมไข่เยี่ยวม้า" style="rectangle;rounded=1;whiteSpace=wrap;html=1;" vertex="1" parent="1">
          <mxGeometry x="470" y="640" width="280" height="120" as="geometry" />
        </mxCell>
        <mxCell id="Ch6X7FGSX2CgDCUvS71B-5" value="ทอดหมูกรอบ&#xa;- ตั้งกระทะ ใส่น้ำมัน&#xa;- ใส่หมูสามชั้นทอดจนกรอบ&#xa;- ตักขึ้นสะเด็ดน้ำมัน" style="rectangle;rounded=1;whiteSpace=wrap;html=1;" vertex="1" parent="1">
          <mxGeometry x="470" y="800" width="280" height="120" as="geometry" />
        </mxCell>
        <mxCell id="Ch6X7FGSX2CgDCUvS71B-6" value="ผัดกระเพรากับเครื่อง&#xa;- ใส่กระเทียม+พริก ผัดจนหอม&#xa;- ใส่ข้าวสวย ผัดให้เข้ากัน&#xa;- ปรุงรส น้ำปลา/ซีอิ๊ว/ซอส/น้ำตาล&#xa;- ใส่หมูกรอบ ผัดให้เข้ากัน&#xa;- ใส่ใบกระเพราผัดเร็วๆ 30 วินาที" style="rectangle;rounded=1;whiteSpace=wrap;html=1;" vertex="1" parent="1">
          <mxGeometry x="470" y="980" width="280" height="180" as="geometry" />
        </mxCell>
        <mxCell id="Ch6X7FGSX2CgDCUvS71B-7" value="จัดเสิร์ฟ&#xa;- ตักข้าวผัดลงจาน&#xa;- วางไข่เยี่ยวม้าด้านข้าง/บน&#xa;- โรยหมูกรอบเพิ่ม" style="rectangle;rounded=1;whiteSpace=wrap;html=1;" vertex="1" parent="1">
          <mxGeometry x="470" y="1190" width="280" height="120" as="geometry" />
        </mxCell>
        <mxCell id="Ch6X7FGSX2CgDCUvS71B-8" value="เสร็จสิ้น" style="ellipse;whiteSpace=wrap;html=1;" vertex="1" parent="1">
          <mxGeometry x="550" y="1350" width="120" height="60" as="geometry" />
        </mxCell>
        <mxCell id="Ch6X7FGSX2CgDCUvS71B-9" style="edgeStyle=orthogonalEdgeStyle;rounded=0;" edge="1" parent="1" source="Ch6X7FGSX2CgDCUvS71B-1" target="Ch6X7FGSX2CgDCUvS71B-2">
          <mxGeometry relative="1" as="geometry" />
        </mxCell>
        <mxCell id="Ch6X7FGSX2CgDCUvS71B-10" style="edgeStyle=orthogonalEdgeStyle;rounded=0;" edge="1" parent="1" source="Ch6X7FGSX2CgDCUvS71B-2" target="Ch6X7FGSX2CgDCUvS71B-3">
          <mxGeometry relative="1" as="geometry" />
        </mxCell>
        <mxCell id="Ch6X7FGSX2CgDCUvS71B-11" style="edgeStyle=orthogonalEdgeStyle;rounded=0;" edge="1" parent="1" source="Ch6X7FGSX2CgDCUvS71B-3" target="Ch6X7FGSX2CgDCUvS71B-4">
          <mxGeometry relative="1" as="geometry" />
        </mxCell>
        <mxCell id="Ch6X7FGSX2CgDCUvS71B-12" style="edgeStyle=orthogonalEdgeStyle;rounded=0;" edge="1" parent="1" source="Ch6X7FGSX2CgDCUvS71B-4" target="Ch6X7FGSX2CgDCUvS71B-5">
          <mxGeometry relative="1" as="geometry" />
        </mxCell>
        <mxCell id="Ch6X7FGSX2CgDCUvS71B-13" style="edgeStyle=orthogonalEdgeStyle;rounded=0;" edge="1" parent="1" source="Ch6X7FGSX2CgDCUvS71B-5" target="Ch6X7FGSX2CgDCUvS71B-6">
          <mxGeometry relative="1" as="geometry" />
        </mxCell>
        <mxCell id="Ch6X7FGSX2CgDCUvS71B-14" style="edgeStyle=orthogonalEdgeStyle;rounded=0;" edge="1" parent="1" source="Ch6X7FGSX2CgDCUvS71B-6" target="Ch6X7FGSX2CgDCUvS71B-7">
          <mxGeometry relative="1" as="geometry" />
        </mxCell>
        <mxCell id="Ch6X7FGSX2CgDCUvS71B-15" style="edgeStyle=orthogonalEdgeStyle;rounded=0;" edge="1" parent="1" source="Ch6X7FGSX2CgDCUvS71B-7" target="Ch6X7FGSX2CgDCUvS71B-8">
          <mxGeometry relative="1" as="geometry" />
        </mxCell>
      </root>
    </mxGraphModel>
  </diagram>
</mxfile>
